<svg width="857" height="1347" viewBox="0 0 857 1347" fill="none" xmlns="http://www.w3.org/2000/svg">
<path fillRule="evenodd" clipRule="evenodd" d="M496.638 1307.71C496.638 1307.71 443.538 1294.43 437.388 1241.05C431.238 1187.67 423.638 1121.59 425.138 1022.86C426.638 924.131 427.918 706.081 427.768 706.251C411.138 724.691 403.148 737.071 371.178 768.591C344.054 795.331 315.305 820.411 283.203 827.601C256.949 833.491 230.827 821.251 218.132 815.631C189.551 802.971 189.176 804.211 170.766 790.701C170.392 790.421 164.926 783.601 161.283 764.131C157.64 744.671 155.594 709.921 155.594 709.921C155.594 709.921 131.021 740.061 99.5528 770.951C70.6078 799.371 54.2368 789.021 40.8508 776.451C29.2038 765.501 16.1038 746.411 13.7418 741.441C1.40884 715.521 -3.11818 695.241 2.19082 674.011C10.1668 642.134 18.1158 609.829 23.7278 587.632C42.5678 513.11 120.789 271.931 149.211 203.855C157.283 184.52 162.923 170.466 171.534 156.276C180.178 142.031 213.453 130.676 230.856 134.622C261.24 141.51 275.804 144.71 296.63 154.164C320.231 164.877 357.096 179.046 372.458 198.9C390.038 221.616 397.628 262.14 397.628 262.14C397.628 262.14 571.428 41.9255 580.228 30.2005C589.028 18.4755 616.698 -4.48853 648.808 0.770475C671.728 4.52547 707.348 18.0765 721.298 24.0165C737.688 30.9945 765.678 46.5575 776.938 53.3955C798.928 66.7455 825.198 85.2865 841.008 102.374C855.868 118.438 857.348 145.811 855.718 171.01C854.098 196.209 659.748 1239.92 649.848 1280.45C639.948 1320.97 621.598 1354.89 585.608 1344.58C549.608 1334.28 496.638 1307.71 496.638 1307.71Z" fill="white"/>
<path fillRule="evenodd" clipRule="evenodd" d="M481.729 1237.57C481.729 1237.57 473.079 1177.74 473.009 1155.85C472.939 1133.95 474.929 805.311 479.109 712.351C483.289 619.392 484.189 548.299 484.189 548.299C484.189 548.299 486.549 511.447 461.089 540.606C435.629 569.765 275.89 738.141 266.333 748.541C256.776 758.931 235.82 775.431 217.991 765.911C200.163 756.401 187.488 744.061 186.376 730.001C184.735 709.241 173.612 559.693 173.603 558.813C173.5 549.126 167.316 541.225 158.368 556.784C148.926 573.202 97.9076 668.051 82.0876 695.841C66.1756 723.791 55.1516 727.991 45.2006 711.701C36.2726 697.091 39.3216 687.891 49.3146 650.011C59.3076 612.128 144.352 330.858 169.284 268.981C194.216 207.103 199.168 186.284 223.922 188.524C248.676 190.765 258.657 198.225 258.657 198.225C258.657 198.225 277.623 200.806 280.168 234.362C282.714 267.917 310.344 424.731 310.344 424.731C310.344 424.731 317.659 447.267 342.847 413.641C368.035 380.014 511.399 193.325 555.049 136.375C559.939 129.989 593.609 84.2792 604.729 71.9362C616.199 59.2012 636.879 58.8542 655.139 64.3612C689.679 74.7772 722.479 81.3472 718.759 111.717C715.039 142.086 574.669 1027.33 540.409 1219.03C537.099 1237.52 533.839 1257.82 524.159 1263.5C516.249 1268.15 507.339 1268.7 503.139 1267.48C496.749 1265.62 486.959 1267.18 481.729 1237.57Z" fill="black"/>
</svg>
